<svg width="760" height="400" viewBox="0 0 760 400" fill="none" xmlns="http://www.w3.org/2000/svg">
<g clip-path="url(#clip0_19_130)">
<path d="M292.885 208.463C288.865 206.064 284.333 204.02 279.336 202.354C275.204 200.977 271.428 199.733 268.008 198.601C264.565 197.468 261.611 196.224 259.101 194.847C256.591 193.47 254.658 191.826 253.281 189.916C251.904 188.006 251.216 185.473 251.216 182.342C251.216 179.21 251.971 176.5 253.503 174.234C255.014 171.969 257.102 170.258 259.767 169.081C262.433 167.904 265.409 167.371 268.741 167.46C272.761 167.46 276.16 168.259 278.892 169.881C281.624 171.502 283.712 173.59 285.089 176.144C286.466 178.699 287.154 181.298 287.154 183.941H302.769C302.68 178.143 301.192 173.101 298.349 168.77C295.506 164.461 291.597 161.063 286.644 158.597C281.69 156.154 275.826 154.91 269.052 154.91C262.277 154.91 256.524 156.109 251.527 158.508C246.529 160.907 242.664 164.261 239.954 168.526C237.244 172.79 235.912 177.833 235.912 183.63C235.912 190.404 237.911 195.913 241.887 200.133C245.863 204.353 251.926 207.841 260.078 210.595C264.098 211.883 267.986 213.127 271.717 214.349C275.449 215.57 278.692 216.948 281.446 218.48C284.2 220.013 286.377 221.923 287.998 224.233C289.62 226.543 290.42 229.519 290.42 233.14C290.42 236.294 289.642 239.048 288.065 241.469C286.488 243.868 284.2 245.756 281.224 247.133C278.225 248.511 274.671 249.199 270.54 249.199C265.831 249.199 261.833 248.288 258.546 246.467C255.258 244.646 252.726 242.202 250.971 239.093C249.217 235.983 248.328 232.585 248.328 228.853H232.869C232.869 235.428 234.446 241.181 237.578 246.089C240.709 250.998 245.13 254.797 250.838 257.506C256.524 260.194 263.099 261.549 270.562 261.549C278.425 261.549 284.933 260.15 290.153 257.351C295.373 254.552 299.282 250.954 301.925 246.534C304.568 242.114 305.901 237.36 305.901 232.252C305.901 226.365 304.746 221.523 302.436 217.747C300.126 213.971 296.972 210.884 292.929 208.463H292.885Z" fill="#F1F1F1"/>
<path d="M366.806 188.65C361.297 185.407 355.033 183.785 347.948 183.785C340.862 183.785 334.687 185.407 329.09 188.65C323.493 191.893 319.095 196.424 315.918 202.266C312.72 208.107 311.121 214.949 311.121 222.812C311.121 230.675 312.698 237.227 315.83 243.069C318.961 248.91 323.337 253.442 328.934 256.685C334.532 259.928 340.862 261.549 347.926 261.549C354.989 261.549 361.164 259.928 366.695 256.685C372.248 253.442 376.645 248.91 379.866 243.069C383.109 237.227 384.731 230.43 384.731 222.678C384.731 214.926 383.109 207.996 379.866 202.199C376.623 196.402 372.248 191.893 366.761 188.65H366.806ZM366.672 237.116C364.607 241.047 361.941 243.979 358.654 245.956C355.367 247.911 351.746 248.91 347.837 248.91C343.927 248.91 340.329 247.933 337.086 245.956C333.843 244.002 331.222 241.047 329.201 237.116C327.18 233.185 326.18 228.387 326.18 222.678C326.18 216.97 327.18 212.061 329.201 208.174C331.222 204.287 333.888 201.377 337.22 199.4C340.551 197.446 344.194 196.446 348.125 196.446C352.057 196.446 355.633 197.423 358.876 199.4C362.119 201.355 364.74 204.287 366.761 208.174C368.782 212.061 369.782 216.881 369.782 222.678C369.782 228.476 368.76 233.185 366.695 237.116H366.672Z" fill="#F1F1F1"/>
<path d="M407.897 153.755H393.171V259.794H407.897V153.755Z" fill="#F1F1F1"/>
<path d="M477.998 196.912C475.533 192.781 472.135 189.583 467.759 187.273C463.383 184.963 458.208 183.807 452.211 183.807C445.236 183.807 439.039 185.473 433.575 188.805C428.133 192.137 423.935 196.735 420.981 202.576C418.027 208.418 416.561 215.126 416.561 222.678C416.561 230.23 418.027 236.672 420.981 242.558C423.935 248.444 428.088 253.086 433.508 256.462C438.906 259.861 445.081 261.549 452.055 261.549C456.475 261.549 460.318 260.905 463.627 259.639C466.915 258.373 469.758 256.729 472.157 254.708C474.556 252.686 476.555 250.51 478.132 248.155L479.464 259.794H492.725V153.755H477.998V196.912ZM474.978 236.294C473.067 240.181 470.358 243.224 466.87 245.423C463.383 247.622 459.341 248.733 454.72 248.733C450.1 248.733 446.191 247.622 442.637 245.423C439.106 243.202 436.374 240.181 434.463 236.294C432.553 232.407 431.598 227.831 431.598 222.523C431.598 217.214 432.553 212.905 434.463 208.973C436.374 205.042 439.106 201.999 442.637 199.844C446.169 197.69 450.189 196.602 454.72 196.602C459.252 196.602 463.383 197.69 466.87 199.844C470.358 201.999 473.067 205.042 474.978 208.973C476.888 212.905 477.843 217.458 477.843 222.678C477.843 227.898 476.888 232.429 474.978 236.294Z" fill="#F1F1F1"/>
<path d="M556.051 237.849C554.674 241.381 552.452 244.179 549.343 246.245C546.255 248.311 542.346 249.332 537.637 249.332C533.617 249.332 529.952 248.355 526.665 246.378C523.377 244.424 520.756 241.558 518.779 237.827C517.069 234.584 516.158 230.63 515.936 226.055H572.532C572.732 224.788 572.821 223.545 572.821 222.367V219.124C572.821 212.639 571.421 206.752 568.623 201.444C565.824 196.135 561.826 191.871 556.628 188.628C551.431 185.385 545.189 183.763 537.926 183.763C530.663 183.763 524.243 185.407 518.713 188.694C513.16 191.982 508.895 196.557 505.896 202.399C502.898 208.241 501.41 215.037 501.41 222.789C501.41 230.541 502.964 237.316 506.052 243.113C509.139 248.91 513.426 253.419 518.868 256.662C524.31 259.905 530.574 261.527 537.637 261.527C543.523 261.527 548.676 260.505 553.097 258.439C557.517 256.374 561.248 253.553 564.291 249.977C567.334 246.401 569.489 242.336 570.777 237.827H556.051V237.849ZM518.779 206.708C520.734 203.221 523.399 200.578 526.731 198.756C530.063 196.935 533.75 196.024 537.77 196.024C543.457 196.024 548.232 197.801 552.053 201.333C555.873 204.864 557.939 209.684 558.25 215.77H516.069C516.469 212.283 517.358 209.24 518.779 206.708Z" fill="#F1F1F1"/>
<path d="M639.99 185.562H624.219L604.784 214.282L585.348 185.562H569.312L595.077 222.678L569.312 259.794H585.348L604.784 230.919L624.219 259.794H639.99L614.357 222.678L639.99 185.562Z" fill="#F1F1F1"/>
<path d="M693.453 188.65C688.255 185.407 682.014 183.785 674.751 183.785C667.487 183.785 661.068 185.429 655.537 188.716C649.984 192.004 645.72 196.579 642.721 202.421C639.723 208.263 638.234 215.06 638.234 222.812C638.234 230.564 639.789 237.338 642.877 243.135C645.964 248.933 650.251 253.442 655.693 256.685C661.135 259.928 667.399 261.549 674.462 261.549C680.348 261.549 685.501 260.527 689.921 258.462C694.341 256.396 698.073 253.575 701.116 249.999C704.159 246.423 706.314 242.358 707.602 237.849H692.875C691.498 241.381 689.277 244.179 686.168 246.245C683.08 248.311 679.171 249.333 674.462 249.333C670.442 249.333 666.777 248.355 663.489 246.378C660.202 244.424 657.581 241.558 655.604 237.827C653.894 234.584 652.983 230.63 652.761 226.055H709.357C709.557 224.788 709.645 223.545 709.645 222.367V219.124C709.645 212.639 708.246 206.752 705.447 201.444C702.649 196.135 698.651 191.871 693.453 188.628V188.65ZM652.894 215.748C653.294 212.261 654.182 209.218 655.604 206.686C657.559 203.199 660.224 200.555 663.556 198.734C666.888 196.913 670.575 196.002 674.595 196.002C680.281 196.002 685.057 197.779 688.877 201.311C692.698 204.842 694.763 209.662 695.074 215.748H652.894Z" fill="#F1F1F1"/>
<path d="M747.717 185.718C744.03 187.006 740.898 188.783 738.299 191.093C735.701 193.403 733.524 196.224 731.747 199.556L730.57 185.562H717.309V259.794H732.036V222.834C732.036 218.214 732.657 214.416 733.879 211.417C735.101 208.418 736.744 206.042 738.81 204.265C740.876 202.488 743.275 201.222 746.029 200.444C748.783 199.667 751.671 199.267 754.714 199.267H760.022V183.808C755.513 183.808 751.404 184.452 747.717 185.718Z" fill="#F1F1F1"/>
<path d="M116.967 175.3L120.943 171.324L129.117 179.498C138.291 188.694 153.195 188.694 162.368 179.498L147.975 165.105L120.943 138.051L119.522 139.473C121.321 142.649 123.187 146.847 124.52 151.045C115.479 150.001 106.084 152.911 99.1536 159.841L83.6942 175.3L144.666 236.272H137.025L80.1181 179.587L0 259.705H8.41828C8.41828 259.705 125.63 184.141 125.63 259.705L201.439 259.794L116.967 175.3ZM144.777 170.569L144.066 171.28C140.423 169.214 134.182 166.971 131.183 168.059L131.094 156.864L144.777 170.547V170.569Z" fill="#F1F1F1"/>
</g>
<defs>
<clipPath id="clip0_19_130">
<rect width="760" height="123.498" fill="white" transform="translate(0 138.051)"/>
</clipPath>
</defs>
</svg>
