<svg width="32" height="32" viewBox="0 0 32 32" fill="none" xmlns="http://www.w3.org/2000/svg">
<rect width="32" height="32" rx="10" fill="#8D54FF"/>
<path d="M18.0971 10.7313L18.6103 10.0128L19.6653 11.4899C20.8494 13.1516 22.7731 13.1516 23.9571 11.4899L22.0993 8.88889L18.6103 4L18.4268 4.25689C18.6591 4.83087 18.8999 5.58949 19.0719 6.34811C17.9051 6.15946 16.6924 6.68528 15.7979 7.9376L13.8025 10.7313L21.6722 21.7493H20.686L13.3409 11.5059L3 25.9839H4.08656C4.08656 25.9839 19.2152 12.3288 19.2152 25.9839L29 26L18.0971 10.7313ZM21.6865 9.8763L21.5948 10.0047C21.1246 9.63145 20.319 9.22605 19.932 9.42273L19.9205 7.39974L21.6865 9.87229V9.8763Z" fill="white"/>
</svg>
